<?xml version="1.0" encoding="utf-8"?>
<svg width="240" height="240" viewBox="0 0 240 240" fill="none" xmlns="http://www.w3.org/2000/svg">
  <defs>
    <filter color-interpolation-filters="sRGB" x="-238" y="-238" width="240" height="240" id="filter_1">
      <feFlood flood-opacity="0" result="BackgroundImageFix_1" />
      <feBlend mode="normal" in="SourceGraphic" in2="BackgroundImageFix_1" result="Shape_2" />
      <feColorMatrix type="matrix" values="0 0 0 0 0 0 0 0 0 0 0 0 0 0 0 0 0 0 1 0" in="SourceAlpha" result="HardAlpha_3" />
      <feOffset dx="0" dy="92" />
      <feGaussianBlur stdDeviation="25" />
      <feComposite operator="arithmetic" k2="-1" k3="1" in2="HardAlpha_3" />
      <feColorMatrix type="matrix" values="0 0 0 0 0.949 0 0 0 0 0.941 0 0 0 0 0.941 0 0 0 0.251 0" />
      <feBlend mode="normal" in2="Shape_2" result="InnerShadow_4" />
    </filter>
  </defs>
  <path d="M121.694 3.3349L144.642 48.5032Q144.682 48.5829 144.73 48.6584Q144.778 48.7339 144.832 48.8046Q144.887 48.8753 144.948 48.9405Q145.009 49.0058 145.076 49.065Q145.143 49.1242 145.215 49.1769Q145.287 49.2297 145.364 49.2754Q145.441 49.3211 145.521 49.3594Q145.602 49.3977 145.686 49.4282Q145.77 49.4588 145.856 49.4813Q145.943 49.5039 146.031 49.5182Q146.119 49.5325 146.208 49.5385Q146.298 49.5445 146.387 49.5421Q146.476 49.5397 146.565 49.529Q146.654 49.5182 146.741 49.4992Q146.828 49.4802 146.913 49.453Q146.998 49.4259 147.081 49.3909L193.693 29.5403Q193.753 29.5147 193.815 29.4932Q193.877 29.4718 193.94 29.4547Q194.003 29.4376 194.067 29.4248Q194.131 29.4121 194.196 29.4037Q194.261 29.3954 194.326 29.3916Q194.392 29.3878 194.457 29.3884Q194.522 29.3891 194.588 29.3943Q194.653 29.3994 194.717 29.409Q194.782 29.4187 194.846 29.4327Q194.91 29.4468 194.973 29.4652Q195.035 29.4836 195.097 29.5063Q195.158 29.529 195.218 29.5558Q195.277 29.5826 195.335 29.6135Q195.393 29.6444 195.448 29.6792Q195.503 29.7139 195.556 29.7524Q195.609 29.7909 195.659 29.833Q195.709 29.875 195.756 29.9204Q195.803 29.9657 195.847 30.0143Q195.891 30.0628 195.932 30.1142Q195.972 30.1656 196.009 30.2197Q196.046 30.2737 196.079 30.3302Q196.112 30.3867 196.141 30.4453Q196.17 30.5039 196.195 30.5643Q196.219 30.6248 196.24 30.6868Q196.261 30.7488 196.277 30.8121Q196.294 30.8754 196.306 30.9397Q196.318 31.004 196.325 31.069Q196.333 31.1339 196.336 31.1992Q196.339 31.2646 196.338 31.3299Q196.336 31.3953 196.33 31.4604Q196.324 31.5256 196.314 31.5901Q196.304 31.6547 196.289 31.7184L184.834 81.0697Q184.814 81.1567 184.802 81.2452Q184.79 81.3338 184.786 81.4231Q184.783 81.5123 184.787 81.6015Q184.792 81.6908 184.805 81.7791Q184.819 81.8675 184.84 81.9542Q184.861 82.041 184.891 82.1254Q184.92 82.2097 184.957 82.2909Q184.995 82.3722 185.039 82.4495Q185.084 82.5269 185.136 82.5997Q185.187 82.6726 185.246 82.7403Q185.304 82.8079 185.369 82.8698Q185.433 82.9317 185.503 82.9873Q185.573 83.0429 185.648 83.0917Q185.723 83.1404 185.802 83.182Q185.881 83.2235 185.963 83.2574Q186.046 83.2913 186.132 83.3174L234.599 98.0728Q234.661 98.0918 234.722 98.1151Q234.783 98.1384 234.843 98.1659Q234.902 98.1933 234.959 98.2248Q235.017 98.2563 235.072 98.2916Q235.127 98.3269 235.179 98.366Q235.232 98.405 235.281 98.4475Q235.331 98.4901 235.378 98.5359Q235.424 98.5818 235.468 98.6307Q235.511 98.6797 235.551 98.7315Q235.591 98.7833 235.627 98.8378Q235.663 98.8922 235.696 98.949Q235.728 99.0058 235.756 99.0647Q235.785 99.1236 235.809 99.1843Q235.834 99.245 235.854 99.3072Q235.874 99.3695 235.889 99.4329Q235.905 99.4964 235.917 99.5608Q235.928 99.6252 235.935 99.6902Q235.942 99.7553 235.944 99.8206Q235.947 99.886 235.944 99.9513Q235.942 100.017 235.936 100.082Q235.929 100.147 235.918 100.211Q235.907 100.276 235.892 100.339Q235.876 100.403 235.857 100.465Q235.837 100.528 235.813 100.588Q235.789 100.649 235.761 100.708Q235.733 100.767 235.7 100.824Q235.668 100.881 235.632 100.936Q235.596 100.99 235.557 101.042Q235.517 101.094 235.474 101.144Q235.431 101.193 235.384 101.239Q235.338 101.285 235.289 101.328Q235.239 101.371 235.187 101.41L194.69 131.852Q194.618 131.906 194.552 131.966Q194.486 132.026 194.426 132.092Q194.366 132.158 194.312 132.23Q194.258 132.301 194.212 132.377Q194.165 132.453 194.126 132.534Q194.086 132.614 194.055 132.697Q194.023 132.781 193.999 132.867Q193.975 132.953 193.96 133.041Q193.944 133.129 193.937 133.218Q193.93 133.307 193.931 133.397Q193.932 133.486 193.942 133.575Q193.952 133.664 193.969 133.751Q193.987 133.839 194.013 133.924Q194.039 134.01 194.073 134.092Q194.107 134.175 194.149 134.254Q194.19 134.333 194.239 134.408L221.882 176.865Q221.918 176.92 221.95 176.977Q221.981 177.034 222.009 177.094Q222.037 177.153 222.061 177.214Q222.084 177.275 222.104 177.337Q222.123 177.399 222.138 177.463Q222.154 177.527 222.164 177.591Q222.175 177.656 222.181 177.721Q222.187 177.786 222.189 177.851Q222.191 177.917 222.188 177.982Q222.185 178.047 222.178 178.112Q222.171 178.177 222.159 178.242Q222.148 178.306 222.132 178.369Q222.115 178.433 222.095 178.495Q222.075 178.557 222.05 178.618Q222.025 178.678 221.997 178.737Q221.968 178.796 221.935 178.852Q221.903 178.909 221.866 178.963Q221.83 179.018 221.789 179.069Q221.749 179.121 221.706 179.169Q221.662 179.218 221.615 179.264Q221.568 179.309 221.518 179.352Q221.469 179.394 221.416 179.433Q221.363 179.472 221.308 179.507Q221.253 179.542 221.195 179.573Q221.138 179.604 221.078 179.631Q221.019 179.658 220.958 179.681Q220.896 179.704 220.834 179.723Q220.771 179.742 220.707 179.756Q220.643 179.77 220.579 179.78Q220.514 179.79 220.449 179.796Q220.384 179.801 220.318 179.802Q220.253 179.803 220.188 179.8L169.597 177.089Q169.508 177.084 169.419 177.088Q169.329 177.091 169.241 177.103Q169.152 177.115 169.065 177.135Q168.978 177.156 168.894 177.184Q168.809 177.212 168.727 177.248Q168.645 177.284 168.567 177.328Q168.489 177.372 168.416 177.422Q168.342 177.473 168.274 177.531Q168.205 177.588 168.143 177.652Q168.08 177.715 168.023 177.785Q167.967 177.854 167.917 177.928Q167.867 178.002 167.825 178.081Q167.782 178.159 167.747 178.241Q167.712 178.324 167.685 178.409Q167.658 178.494 167.639 178.581Q167.62 178.668 167.609 178.757L161.494 229.05Q161.486 229.115 161.474 229.179Q161.461 229.243 161.445 229.306Q161.428 229.37 161.407 229.432Q161.386 229.494 161.361 229.554Q161.335 229.614 161.306 229.673Q161.277 229.731 161.243 229.787Q161.21 229.844 161.173 229.898Q161.136 229.951 161.095 230.003Q161.055 230.054 161.011 230.102Q160.966 230.15 160.919 230.196Q160.872 230.241 160.822 230.283Q160.771 230.324 160.718 230.362Q160.665 230.401 160.61 230.435Q160.554 230.47 160.496 230.5Q160.438 230.531 160.379 230.557Q160.319 230.584 160.257 230.606Q160.196 230.629 160.133 230.647Q160.07 230.665 160.006 230.679Q159.942 230.692 159.878 230.702Q159.813 230.711 159.748 230.716Q159.682 230.721 159.617 230.721Q159.552 230.721 159.486 230.717Q159.421 230.713 159.356 230.704Q159.292 230.696 159.227 230.683Q159.163 230.669 159.1 230.652Q159.037 230.635 158.976 230.613Q158.914 230.591 158.854 230.565Q158.794 230.539 158.736 230.509Q158.678 230.479 158.622 230.445Q158.566 230.411 158.512 230.374Q158.459 230.336 158.408 230.295Q158.357 230.253 158.31 230.209L121.298 195.613Q121.232 195.552 121.162 195.497Q121.091 195.443 121.016 195.395Q120.94 195.347 120.86 195.307Q120.781 195.266 120.698 195.234Q120.614 195.201 120.529 195.176Q120.443 195.151 120.355 195.134Q120.267 195.118 120.178 195.109Q120.089 195.101 120 195.101Q119.911 195.101 119.822 195.109Q119.733 195.118 119.645 195.134Q119.557 195.151 119.471 195.176Q119.386 195.201 119.302 195.234Q119.219 195.266 119.14 195.307Q119.06 195.347 118.984 195.395Q118.909 195.443 118.838 195.497Q118.768 195.552 118.702 195.613L81.6903 230.209Q81.6425 230.253 81.5918 230.295Q81.5411 230.336 81.4876 230.374Q81.4342 230.411 81.3783 230.445Q81.3223 230.479 81.2642 230.509Q81.2061 230.539 81.1461 230.565Q81.0861 230.591 81.0244 230.613Q80.9627 230.635 80.8997 230.652Q80.8366 230.669 80.7726 230.683Q80.7085 230.696 80.6437 230.704Q80.5788 230.713 80.5136 230.717Q80.4483 230.721 80.3829 230.721Q80.3175 230.721 80.2523 230.716Q80.1871 230.711 80.1224 230.702Q80.0576 230.692 79.9937 230.679Q79.9298 230.665 79.8669 230.647Q79.8041 230.629 79.7426 230.606Q79.6812 230.584 79.6214 230.557Q79.5616 230.531 79.5038 230.5Q79.446 230.47 79.3905 230.435Q79.3349 230.401 79.2818 230.362Q79.2288 230.324 79.1785 230.282Q79.1282 230.241 79.0808 230.196Q79.0335 230.15 78.9894 230.102Q78.9453 230.054 78.9046 230.003Q78.864 229.951 78.8269 229.898Q78.7898 229.844 78.7566 229.787Q78.7233 229.731 78.694 229.673Q78.6646 229.614 78.6394 229.554Q78.6142 229.494 78.5931 229.432Q78.5721 229.37 78.5554 229.306Q78.5387 229.243 78.5263 229.179Q78.514 229.115 78.5061 229.05L72.391 178.757Q72.3802 178.668 72.3612 178.581Q72.3421 178.494 72.3149 178.409Q72.2878 178.324 72.2527 178.241Q72.2177 178.159 72.1751 178.081Q72.1326 178.002 72.0828 177.928Q72.033 177.854 71.9765 177.784Q71.92 177.715 71.8573 177.652Q71.7945 177.588 71.7261 177.531Q71.6576 177.473 71.5841 177.422Q71.5106 177.372 71.4326 177.328Q71.3546 177.284 71.2729 177.248Q71.1912 177.212 71.1065 177.184Q71.0217 177.156 70.9347 177.135Q70.8477 177.115 70.7591 177.103Q70.6706 177.091 70.5813 177.088Q70.4921 177.084 70.4028 177.089L19.8123 179.8Q19.747 179.803 19.6816 179.802Q19.6162 179.801 19.551 179.796Q19.4858 179.79 19.4212 179.78Q19.3566 179.77 19.2928 179.756Q19.229 179.742 19.1663 179.723Q19.1037 179.704 19.0424 179.681Q18.9812 179.658 18.9217 179.631Q18.8622 179.604 18.8047 179.573Q18.7472 179.542 18.692 179.507Q18.6368 179.472 18.5841 179.433Q18.5315 179.394 18.4816 179.352Q18.4317 179.309 18.3848 179.264Q18.338 179.218 18.2944 179.169Q18.2508 179.121 18.2106 179.069Q18.1705 179.018 18.1339 178.963Q18.0974 178.909 18.0647 178.852Q18.032 178.796 18.0033 178.737Q17.9746 178.678 17.9499 178.618Q17.9253 178.557 17.9049 178.495Q17.8845 178.433 17.8684 178.369Q17.8524 178.306 17.8407 178.242Q17.829 178.177 17.8218 178.112Q17.8145 178.047 17.8118 177.982Q17.809 177.917 17.8108 177.851Q17.8125 177.786 17.8188 177.721Q17.825 177.656 17.8357 177.591Q17.8464 177.527 17.8615 177.463Q17.8766 177.399 17.8961 177.337Q17.9155 177.275 17.9392 177.214Q17.9629 177.153 17.9907 177.094Q18.0186 177.034 18.0504 176.977Q18.0822 176.92 18.1179 176.865L45.7611 134.408Q45.8099 134.333 45.8514 134.254Q45.8929 134.175 45.9268 134.092Q45.9607 134.01 45.9867 133.924Q46.0127 133.839 46.0305 133.751Q46.0484 133.664 46.058 133.575Q46.0676 133.486 46.0688 133.397Q46.07 133.307 46.0628 133.218Q46.0556 133.129 46.0401 133.041Q46.0245 132.953 46.0008 132.867Q45.9771 132.781 45.9455 132.697Q45.9138 132.614 45.8744 132.534Q45.835 132.453 45.7883 132.377Q45.7416 132.301 45.6879 132.23Q45.6342 132.158 45.5741 132.092Q45.514 132.026 45.4479 131.966Q45.3818 131.906 45.3104 131.852L4.81311 101.41Q4.76084 101.371 4.71139 101.328Q4.66194 101.285 4.61555 101.239Q4.56916 101.193 4.52605 101.144Q4.48294 101.094 4.44331 101.042Q4.40368 100.99 4.36772 100.936Q4.33177 100.881 4.29965 100.824Q4.26753 100.767 4.2394 100.708Q4.21127 100.649 4.18727 100.588Q4.16326 100.527 4.1435 100.465Q4.12373 100.403 4.1083 100.339Q4.09287 100.276 4.08184 100.211Q4.07081 100.147 4.06424 100.082Q4.05767 100.017 4.05558 99.9513Q4.0535 99.8859 4.05591 99.8206Q4.05833 99.7552 4.06523 99.6902Q4.07213 99.6252 4.08349 99.5608Q4.09484 99.4964 4.1106 99.4329Q4.12635 99.3694 4.14643 99.3072Q4.16651 99.245 4.19083 99.1842Q4.21514 99.1236 4.24356 99.0646Q4.27199 99.0058 4.3044 98.949Q4.33681 98.8922 4.37304 98.8377Q4.40928 98.7833 4.44917 98.7315Q4.48906 98.6797 4.53242 98.6307Q4.57578 98.5817 4.62241 98.5359Q4.66903 98.49 4.71869 98.4475Q4.76836 98.4049 4.82083 98.3659Q4.8733 98.3269 4.92833 98.2915Q4.98336 98.2562 5.04069 98.2248Q5.09802 98.1933 5.15737 98.1658Q5.21673 98.1384 5.27783 98.1151Q5.33893 98.0918 5.40149 98.0728L53.8684 83.3173Q53.9539 83.2913 54.0365 83.2574Q54.1192 83.2234 54.1983 83.1819Q54.2774 83.1404 54.3523 83.0916Q54.4271 83.0429 54.4971 82.9873Q54.567 82.9317 54.6315 82.8698Q54.6959 82.8079 54.7542 82.7402Q54.8126 82.6726 54.8643 82.5997Q54.9161 82.5269 54.9607 82.4495Q55.0054 82.3721 55.0426 82.2909Q55.0798 82.2097 55.1093 82.1253Q55.1387 82.041 55.1601 81.9542Q55.1815 81.8675 55.1946 81.7791Q55.2078 81.6907 55.2126 81.6015Q55.2174 81.5123 55.2138 81.423Q55.2102 81.3338 55.1983 81.2452Q55.1863 81.1567 55.1661 81.0696L43.7112 31.7184Q43.6964 31.6547 43.686 31.5901Q43.6757 31.5256 43.6697 31.4604Q43.6638 31.3953 43.6624 31.3299Q43.661 31.2645 43.6641 31.1992Q43.6672 31.1339 43.6747 31.0689Q43.6823 31.004 43.6943 30.9397Q43.7063 30.8754 43.7227 30.8121Q43.7391 30.7488 43.7598 30.6868Q43.7806 30.6248 43.8055 30.5643Q43.8304 30.5038 43.8594 30.4452Q43.8885 30.3866 43.9215 30.3302Q43.9544 30.2737 43.9912 30.2196Q44.028 30.1656 44.0684 30.1142Q44.1089 30.0628 44.1527 30.0142Q44.1966 29.9657 44.2437 29.9204Q44.2907 29.875 44.3408 29.8329Q44.3909 29.7909 44.4438 29.7524Q44.4967 29.7139 44.5521 29.6792Q44.6075 29.6444 44.6651 29.6135Q44.7228 29.5826 44.7824 29.5558Q44.842 29.529 44.9034 29.5063Q44.9647 29.4836 45.0274 29.4652Q45.0902 29.4468 45.1541 29.4327Q45.2179 29.4187 45.2826 29.409Q45.3473 29.3994 45.4125 29.3943Q45.4777 29.3891 45.5431 29.3884Q45.6085 29.3878 45.6738 29.3916Q45.739 29.3954 45.8039 29.4037Q45.8688 29.4121 45.9329 29.4248Q45.997 29.4376 46.0602 29.4547Q46.1233 29.4718 46.1851 29.4932Q46.2468 29.5147 46.307 29.5403L92.9194 49.3909Q93.0016 49.4259 93.0868 49.453Q93.1719 49.4802 93.2592 49.4992Q93.3465 49.5182 93.4352 49.529Q93.5238 49.5397 93.6132 49.5421Q93.7025 49.5445 93.7916 49.5385Q93.8808 49.5325 93.9689 49.5182Q94.0571 49.5039 94.1436 49.4813Q94.23 49.4588 94.314 49.4282Q94.3979 49.3977 94.4787 49.3594Q94.5594 49.3211 94.6361 49.2754Q94.7129 49.2297 94.785 49.1769Q94.8572 49.1242 94.9241 49.065Q94.991 49.0058 95.052 48.9405Q95.113 48.8753 95.1677 48.8046Q95.2223 48.7339 95.2701 48.6584Q95.3178 48.5829 95.3583 48.5032L118.306 3.3349Q118.335 3.2766 118.369 3.22047Q118.402 3.16434 118.44 3.11065Q118.477 3.05696 118.518 3.00597Q118.559 2.95497 118.603 2.90691Q118.648 2.85885 118.695 2.81395Q118.743 2.76906 118.793 2.72753Q118.844 2.68601 118.897 2.64806Q118.95 2.6101 119.006 2.5759Q119.062 2.5417 119.12 2.51141Q119.178 2.48112 119.238 2.45489Q119.298 2.42865 119.359 2.4066Q119.421 2.38455 119.484 2.36678Q119.547 2.34901 119.611 2.33561Q119.675 2.32221 119.739 2.31324Q119.804 2.30427 119.869 2.29977Q119.935 2.29528 120 2.29528Q120.065 2.29528 120.131 2.29977Q120.196 2.30427 120.261 2.31324Q120.325 2.32221 120.389 2.33561Q120.453 2.34901 120.516 2.36678Q120.579 2.38455 120.641 2.4066Q120.702 2.42865 120.762 2.45489Q120.822 2.48112 120.88 2.51141Q120.938 2.5417 120.994 2.5759Q121.05 2.6101 121.103 2.64806Q121.156 2.68601 121.207 2.72753Q121.257 2.76906 121.305 2.81395Q121.352 2.85885 121.397 2.90691Q121.441 2.95497 121.482 3.00597Q121.523 3.05696 121.56 3.11065Q121.598 3.16434 121.631 3.22047Q121.665 3.2766 121.694 3.3349Z" fill="#D95729" fill-rule="evenodd" filter="url(#filter_1)" />
</svg>