<?xml version="1.0" encoding="utf-8"?>
<svg width="100" height="100" viewBox="0 0 100 100" fill="none" xmlns="http://www.w3.org/2000/svg">
  <defs>
    <filter color-interpolation-filters="sRGB" x="-98" y="-98" width="100" height="100" id="filter_1">
      <feFlood flood-opacity="0" result="BackgroundImageFix_1" />
      <feBlend mode="normal" in="SourceGraphic" in2="BackgroundImageFix_1" result="Shape_2" />
      <feColorMatrix type="matrix" values="0 0 0 0 0 0 0 0 0 0 0 0 0 0 0 0 0 0 1 0" in="SourceAlpha" result="HardAlpha_3" />
      <feOffset dx="0" dy="4" />
      <feGaussianBlur stdDeviation="6" />
      <feComposite operator="arithmetic" k2="-1" k3="1" in2="HardAlpha_3" />
      <feColorMatrix type="matrix" values="0 0 0 0 0 0 0 0 0 0 0 0 0 0 0 0 0 0 0.251 0" />
      <feBlend mode="normal" in2="Shape_2" result="InnerShadow_4" />
    </filter>
  </defs>
  <path d="M51.6943 3.3349L59.798 19.2859Q59.8385 19.3655 59.8863 19.441Q59.934 19.5165 59.9887 19.5872Q60.0433 19.6579 60.1043 19.7232Q60.1654 19.7884 60.2323 19.8477Q60.2991 19.9069 60.3713 19.9596Q60.4434 20.0123 60.5202 20.058Q60.597 20.1037 60.6777 20.142Q60.7584 20.1803 60.8424 20.2109Q60.9263 20.2414 61.0128 20.264Q61.0992 20.2865 61.1874 20.3009Q61.2756 20.3152 61.3647 20.3212Q61.4539 20.3272 61.5432 20.3248Q61.6325 20.3224 61.7212 20.3116Q61.8099 20.3009 61.8972 20.2818Q61.9845 20.2628 62.0696 20.2357Q62.1547 20.2085 62.2369 20.1735L78.6978 13.1634Q78.758 13.1378 78.8198 13.1163Q78.8816 13.0949 78.9447 13.0778Q79.0078 13.0607 79.072 13.0479Q79.1361 13.0352 79.201 13.0269Q79.2658 13.0185 79.3311 13.0147Q79.3964 13.0109 79.4618 13.0115Q79.5272 13.0122 79.5924 13.0174Q79.6576 13.0225 79.7223 13.0322Q79.7869 13.0418 79.8508 13.0558Q79.9147 13.0699 79.9774 13.0883Q80.0402 13.1067 80.1015 13.1294Q80.1628 13.1521 80.2225 13.1789Q80.2821 13.2058 80.3398 13.2366Q80.3974 13.2675 80.4528 13.3023Q80.5082 13.337 80.5611 13.3755Q80.6139 13.414 80.664 13.4561Q80.7141 13.4981 80.7612 13.5435Q80.8083 13.5889 80.8521 13.6374Q80.896 13.6859 80.9364 13.7373Q80.9768 13.7887 81.0136 13.8428Q81.0504 13.8968 81.0834 13.9533Q81.1164 14.0098 81.1454 14.0684Q81.1744 14.127 81.1994 14.1874Q81.2243 14.2479 81.245 14.3099Q81.2657 14.3719 81.2821 14.4352Q81.2985 14.4985 81.3105 14.5628Q81.3225 14.6271 81.3301 14.6921Q81.3377 14.757 81.3408 14.8223Q81.3438 14.8877 81.3424 14.9531Q81.341 15.0184 81.3351 15.0836Q81.3292 15.1487 81.3188 15.2133Q81.3084 15.2778 81.2936 15.3415L77.2484 32.7697Q77.2282 32.8567 77.2163 32.9453Q77.2043 33.0338 77.2007 33.1231Q77.1971 33.2123 77.202 33.3016Q77.2068 33.3908 77.2199 33.4791Q77.2331 33.5675 77.2544 33.6543Q77.2758 33.741 77.3053 33.8254Q77.3347 33.9097 77.3719 33.9909Q77.4091 34.0722 77.4538 34.1495Q77.4985 34.2269 77.5502 34.2998Q77.6019 34.3726 77.6603 34.4403Q77.7186 34.5079 77.7831 34.5698Q77.8475 34.6317 77.9174 34.6873Q77.9874 34.7429 78.0623 34.7917Q78.1371 34.8404 78.2162 34.882Q78.2953 34.9235 78.378 34.9574Q78.4606 34.9913 78.5461 35.0174L95.6619 40.2281Q95.7245 40.2472 95.7856 40.2705Q95.8467 40.2938 95.9061 40.3212Q95.9654 40.3487 96.0228 40.3802Q96.0801 40.4116 96.1351 40.4469Q96.1902 40.4823 96.2426 40.5213Q96.2951 40.5603 96.3448 40.6029Q96.3944 40.6454 96.4411 40.6913Q96.4877 40.7371 96.531 40.7861Q96.5744 40.835 96.6143 40.8869Q96.6542 40.9387 96.6904 40.9931Q96.7267 41.0475 96.7591 41.1043Q96.7915 41.1611 96.8199 41.22Q96.8483 41.2789 96.8726 41.3396Q96.8969 41.4004 96.917 41.4626Q96.9371 41.5248 96.9529 41.5883Q96.9686 41.6518 96.98 41.7162Q96.9913 41.7806 96.9982 41.8456Q97.0051 41.9106 97.0076 41.976Q97.01 42.0413 97.0079 42.1067Q97.0058 42.172 96.9992 42.2371Q96.9927 42.3022 96.9816 42.3666Q96.9706 42.4311 96.9552 42.4946Q96.9398 42.5582 96.92 42.6205Q96.9002 42.6829 96.8762 42.7437Q96.8522 42.8045 96.8241 42.8636Q96.796 42.9226 96.7638 42.9796Q96.7317 43.0365 96.6958 43.0911Q96.6598 43.1458 96.6202 43.1978Q96.5805 43.2498 96.5374 43.299Q96.4943 43.3482 96.4479 43.3942Q96.4015 43.4403 96.3521 43.4831Q96.3026 43.5259 96.2504 43.5652L81.9489 54.3157Q81.8775 54.3694 81.8115 54.4296Q81.7454 54.4897 81.6853 54.5558Q81.6251 54.6219 81.5715 54.6933Q81.5178 54.7647 81.4711 54.8409Q81.4243 54.917 81.385 54.9972Q81.3456 55.0774 81.3139 55.161Q81.2822 55.2445 81.2585 55.3307Q81.2348 55.4168 81.2193 55.5048Q81.2038 55.5928 81.1966 55.6818Q81.1894 55.7709 81.1906 55.8602Q81.1918 55.9496 81.2014 56.0384Q81.211 56.1272 81.2288 56.2148Q81.2467 56.3023 81.2727 56.3878Q81.2987 56.4733 81.3326 56.5559Q81.3665 56.6386 81.408 56.7177Q81.4495 56.7968 81.4983 56.8717L91.2603 71.8653Q91.296 71.9201 91.3278 71.9772Q91.3596 72.0343 91.3875 72.0935Q91.4153 72.1527 91.439 72.2136Q91.4627 72.2746 91.4821 72.337Q91.5016 72.3995 91.5167 72.4631Q91.5318 72.5267 91.5425 72.5912Q91.5532 72.6558 91.5595 72.7209Q91.5657 72.7859 91.5674 72.8513Q91.5692 72.9167 91.5665 72.982Q91.5637 73.0474 91.5565 73.1124Q91.5492 73.1774 91.5376 73.2417Q91.5259 73.306 91.5098 73.3694Q91.4937 73.4328 91.4733 73.4949Q91.4529 73.5571 91.4283 73.6177Q91.4037 73.6782 91.3749 73.737Q91.3462 73.7957 91.3135 73.8524Q91.2808 73.909 91.2443 73.9633Q91.2078 74.0175 91.1676 74.0691Q91.1275 74.1207 91.0839 74.1695Q91.0403 74.2182 90.9934 74.2638Q90.9465 74.3094 90.8967 74.3517Q90.8468 74.394 90.7941 74.4328Q90.7414 74.4715 90.6862 74.5066Q90.631 74.5416 90.5735 74.5728Q90.5161 74.604 90.4566 74.6311Q90.3971 74.6583 90.3358 74.6813Q90.2746 74.7043 90.212 74.723Q90.1493 74.7417 90.0855 74.7561Q90.0217 74.7705 89.9571 74.7804Q89.8924 74.7904 89.8273 74.7959Q89.7621 74.8013 89.6967 74.8023Q89.6313 74.8033 89.566 74.7998L71.7002 73.8424Q71.611 73.8376 71.5217 73.8413Q71.4324 73.8449 71.3439 73.8568Q71.2554 73.8688 71.1683 73.889Q71.0813 73.9093 70.9966 73.9376Q70.9118 73.9659 70.8301 74.002Q70.7484 74.0381 70.6704 74.0818Q70.5925 74.1254 70.5189 74.1761Q70.4454 74.2269 70.377 74.2843Q70.3085 74.3418 70.2458 74.4053Q70.183 74.4689 70.1265 74.5382Q70.07 74.6074 70.0202 74.6816Q69.9705 74.7558 69.9279 74.8343Q69.8853 74.9128 69.8503 74.995Q69.8152 75.0772 69.7881 75.1624Q69.7609 75.2475 69.7419 75.3348Q69.7228 75.422 69.712 75.5107L67.5525 93.2714Q67.5446 93.3363 67.5323 93.4005Q67.5199 93.4647 67.5032 93.5279Q67.4865 93.5912 67.4655 93.6531Q67.4444 93.715 67.4192 93.7753Q67.394 93.8357 67.3646 93.8941Q67.3353 93.9526 67.302 94.0089Q67.2688 94.0652 67.2317 94.1191Q67.1946 94.173 67.154 94.2242Q67.1133 94.2754 67.0692 94.3236Q67.0251 94.3719 66.9778 94.4171Q66.9305 94.4622 66.8801 94.504Q66.8298 94.5458 66.7768 94.584Q66.7237 94.6222 66.6681 94.6567Q66.6126 94.6912 66.5548 94.7218Q66.497 94.7523 66.4372 94.7789Q66.3774 94.8054 66.316 94.8278Q66.2545 94.8501 66.1917 94.8682Q66.1288 94.8863 66.0649 94.9Q66.001 94.9138 65.9362 94.9231Q65.8715 94.9324 65.8063 94.9372Q65.7411 94.942 65.6757 94.9424Q65.6103 94.9427 65.545 94.9385Q65.4798 94.9344 65.4149 94.9257Q65.3501 94.9171 65.286 94.904Q65.222 94.8909 65.1589 94.8735Q65.0959 94.856 65.0342 94.8343Q64.9726 94.8125 64.9125 94.7866Q64.8525 94.7607 64.7944 94.7307Q64.7363 94.7007 64.6804 94.6668Q64.6244 94.6329 64.571 94.5952Q64.5175 94.5575 64.4668 94.5162Q64.4161 94.475 64.3683 94.4303L51.2977 82.213Q51.2324 82.152 51.1617 82.0973Q51.091 82.0427 51.0155 81.995Q50.94 81.9472 50.8603 81.9068Q50.7806 81.8663 50.6975 81.8336Q50.6144 81.8008 50.5286 81.7759Q50.4428 81.7511 50.355 81.7344Q50.2672 81.7177 50.1783 81.7093Q50.0893 81.7009 50 81.7009Q49.9107 81.7009 49.8217 81.7093Q49.7327 81.7177 49.645 81.7344Q49.5572 81.7511 49.4714 81.7759Q49.3856 81.8008 49.3025 81.8336Q49.2194 81.8663 49.1397 81.9068Q49.06 81.9472 48.9845 81.995Q48.909 82.0427 48.8383 82.0974Q48.7676 82.152 48.7023 82.213L35.6317 94.4303Q35.5839 94.475 35.5332 94.5162Q35.4825 94.5575 35.429 94.5952Q35.3756 94.6329 35.3196 94.6668Q35.2637 94.7007 35.2056 94.7307Q35.1475 94.7607 35.0875 94.7866Q35.0274 94.8125 34.9658 94.8343Q34.9041 94.856 34.8411 94.8735Q34.778 94.8909 34.714 94.904Q34.6499 94.9171 34.5851 94.9257Q34.5202 94.9344 34.455 94.9385Q34.3897 94.9427 34.3243 94.9424Q34.2589 94.942 34.1937 94.9372Q34.1285 94.9324 34.0638 94.9231Q33.999 94.9138 33.9351 94.9Q33.8712 94.8863 33.8083 94.8682Q33.7455 94.8501 33.684 94.8278Q33.6226 94.8054 33.5628 94.7789Q33.503 94.7523 33.4452 94.7217Q33.3874 94.6912 33.3319 94.6567Q33.2763 94.6222 33.2232 94.584Q33.1702 94.5457 33.1199 94.504Q33.0696 94.4622 33.0222 94.4171Q32.9749 94.3719 32.9308 94.3236Q32.8867 94.2753 32.846 94.2241Q32.8054 94.1729 32.7683 94.1191Q32.7312 94.0652 32.698 94.0089Q32.6647 93.9526 32.6354 93.8941Q32.606 93.8357 32.5808 93.7753Q32.5556 93.715 32.5345 93.6531Q32.5135 93.5912 32.4968 93.5279Q32.4801 93.4647 32.4677 93.4005Q32.4554 93.3363 32.4475 93.2714L30.288 75.5107Q30.2772 75.422 30.2581 75.3347Q30.2391 75.2475 30.2119 75.1623Q30.1848 75.0772 30.1497 74.995Q30.1147 74.9128 30.0721 74.8343Q30.0295 74.7558 29.9798 74.6815Q29.93 74.6073 29.8735 74.5381Q29.817 74.4689 29.7542 74.4053Q29.6915 74.3417 29.623 74.2843Q29.5546 74.2269 29.4811 74.1761Q29.4075 74.1254 29.3296 74.0818Q29.2516 74.0381 29.1699 74.002Q29.0882 73.9659 29.0034 73.9376Q28.9187 73.9093 28.8317 73.889Q28.7446 73.8688 28.6561 73.8568Q28.5676 73.8449 28.4783 73.8413Q28.389 73.8376 28.2998 73.8424L10.434 74.7998Q10.3687 74.8033 10.3033 74.8023Q10.2379 74.8013 10.1727 74.7959Q10.1076 74.7904 10.0429 74.7804Q9.97831 74.7705 9.91452 74.7561Q9.85072 74.7417 9.78806 74.723Q9.72541 74.7042 9.66419 74.6813Q9.60297 74.6583 9.54347 74.6311Q9.48397 74.604 9.42648 74.5728Q9.369 74.5416 9.31379 74.5066Q9.25858 74.4715 9.2059 74.4328Q9.15323 74.394 9.10335 74.3517Q9.05347 74.3094 9.00661 74.2638Q8.95976 74.2182 8.91615 74.1695Q8.87254 74.1207 8.83238 74.0691Q8.79222 74.0175 8.75571 73.9632Q8.7192 73.909 8.6865 73.8524Q8.6538 73.7957 8.62508 73.737Q8.59635 73.6782 8.57173 73.6177Q8.54711 73.5571 8.52671 73.4949Q8.50631 73.4328 8.49023 73.3694Q8.47415 73.306 8.46247 73.2417Q8.45079 73.1774 8.44355 73.1124Q8.43632 73.0474 8.43357 72.982Q8.43083 72.9167 8.43258 72.8513Q8.43433 72.7859 8.44057 72.7209Q8.44681 72.6558 8.4575 72.5912Q8.4682 72.5267 8.48331 72.4631Q8.49842 72.3995 8.51787 72.337Q8.53732 72.2746 8.56101 72.2136Q8.58471 72.1527 8.61253 72.0935Q8.64036 72.0343 8.67219 71.9772Q8.70402 71.9201 8.7397 71.8653L18.5017 56.8717Q18.5505 56.7968 18.592 56.7177Q18.6335 56.6386 18.6674 56.5559Q18.7013 56.4733 18.7273 56.3878Q18.7533 56.3023 18.7712 56.2148Q18.789 56.1272 18.7986 56.0384Q18.8082 55.9496 18.8094 55.8602Q18.8106 55.7709 18.8034 55.6818Q18.7962 55.5928 18.7807 55.5048Q18.7652 55.4168 18.7415 55.3307Q18.7178 55.2445 18.6861 55.161Q18.6544 55.0774 18.615 54.9972Q18.5757 54.917 18.5289 54.8409Q18.4822 54.7647 18.4285 54.6933Q18.3749 54.6219 18.3147 54.5558Q18.2546 54.4897 18.1885 54.4296Q18.1225 54.3694 18.0511 54.3157L3.74964 43.5652Q3.69737 43.5259 3.64792 43.4831Q3.59847 43.4403 3.55208 43.3942Q3.50569 43.3481 3.46258 43.299Q3.41947 43.2498 3.37984 43.1978Q3.34021 43.1458 3.30425 43.0911Q3.26829 43.0365 3.23617 42.9795Q3.20405 42.9226 3.17592 42.8635Q3.14779 42.8045 3.12379 42.7437Q3.09979 42.6829 3.08002 42.6205Q3.06026 42.5582 3.04483 42.4946Q3.02939 42.4311 3.01836 42.3666Q3.00734 42.3022 3.00077 42.2371Q2.99419 42.172 2.99211 42.1067Q2.99003 42.0413 2.99244 41.976Q2.99486 41.9106 3.00176 41.8456Q3.00866 41.7806 3.02002 41.7161Q3.03137 41.6517 3.04713 41.5883Q3.06289 41.5248 3.08297 41.4626Q3.10305 41.4003 3.12736 41.3396Q3.15168 41.2789 3.1801 41.22Q3.20853 41.1611 3.24094 41.1043Q3.27335 41.0475 3.30959 40.9931Q3.34582 40.9387 3.38572 40.8868Q3.42561 40.835 3.46897 40.7861Q3.51233 40.7371 3.55896 40.6913Q3.60558 40.6454 3.65525 40.6029Q3.70491 40.5603 3.75738 40.5213Q3.80986 40.4823 3.86489 40.4469Q3.91992 40.4116 3.97725 40.3802Q4.03458 40.3487 4.09394 40.3212Q4.15329 40.2938 4.2144 40.2705Q4.2755 40.2472 4.33806 40.2281L21.4539 35.0173Q21.5394 34.9913 21.622 34.9574Q21.7047 34.9235 21.7838 34.8819Q21.8629 34.8404 21.9377 34.7916Q22.0126 34.7429 22.0826 34.6873Q22.1525 34.6317 22.2169 34.5698Q22.2814 34.5079 22.3397 34.4403Q22.3981 34.3726 22.4498 34.2997Q22.5015 34.2269 22.5462 34.1495Q22.5909 34.0722 22.6281 33.9909Q22.6653 33.9097 22.6947 33.8253Q22.7242 33.741 22.7455 33.6542Q22.7669 33.5675 22.7801 33.4791Q22.7932 33.3907 22.798 33.3015Q22.8029 33.2123 22.7993 33.123Q22.7957 33.0338 22.7837 32.9452Q22.7718 32.8567 22.7516 32.7697L18.7064 15.3415Q18.6916 15.2778 18.6812 15.2133Q18.6708 15.1487 18.6649 15.0836Q18.659 15.0184 18.6576 14.9531Q18.6562 14.8877 18.6593 14.8223Q18.6623 14.757 18.6699 14.6921Q18.6775 14.6271 18.6895 14.5628Q18.7015 14.4985 18.7179 14.4352Q18.7343 14.3719 18.755 14.3099Q18.7757 14.2479 18.8007 14.1874Q18.8256 14.127 18.8546 14.0684Q18.8836 14.0098 18.9166 13.9533Q18.9496 13.8968 18.9864 13.8428Q19.0232 13.7887 19.0636 13.7373Q19.104 13.6859 19.1479 13.6374Q19.1917 13.5889 19.2388 13.5435Q19.2859 13.4981 19.336 13.4561Q19.3861 13.414 19.439 13.3755Q19.4918 13.337 19.5472 13.3023Q19.6026 13.2675 19.6603 13.2366Q19.7179 13.2058 19.7775 13.1789Q19.8372 13.1521 19.8985 13.1294Q19.9598 13.1067 20.0226 13.0883Q20.0853 13.0699 20.1492 13.0558Q20.2131 13.0418 20.2778 13.0322Q20.3424 13.0225 20.4076 13.0174Q20.4728 13.0122 20.5382 13.0115Q20.6036 13.0109 20.6689 13.0147Q20.7342 13.0185 20.799 13.0269Q20.8639 13.0352 20.928 13.0479Q20.9922 13.0607 21.0553 13.0778Q21.1184 13.0949 21.1802 13.1163Q21.242 13.1378 21.3021 13.1634L37.7631 20.1735Q37.8453 20.2085 37.9304 20.2357Q38.0155 20.2628 38.1028 20.2818Q38.1901 20.3009 38.2788 20.3116Q38.3675 20.3224 38.4568 20.3248Q38.5461 20.3272 38.6353 20.3212Q38.7244 20.3152 38.8126 20.3009Q38.9008 20.2865 38.9872 20.264Q39.0737 20.2414 39.1576 20.2109Q39.2416 20.1803 39.3223 20.142Q39.403 20.1037 39.4798 20.058Q39.5566 20.0123 39.6287 19.9596Q39.7009 19.9069 39.7677 19.8477Q39.8346 19.7884 39.8957 19.7232Q39.9567 19.6579 40.0113 19.5872Q40.066 19.5165 40.1137 19.441Q40.1615 19.3655 40.202 19.2859L48.3057 3.3349Q48.3354 3.2766 48.3689 3.22047Q48.4025 3.16434 48.4398 3.11065Q48.4771 3.05696 48.5181 3.00597Q48.559 2.95497 48.6034 2.90691Q48.6477 2.85885 48.6953 2.81395Q48.7428 2.76906 48.7933 2.72753Q48.8439 2.68601 48.8971 2.64806Q48.9504 2.6101 49.0061 2.5759Q49.0618 2.5417 49.1198 2.51141Q49.1778 2.48112 49.2377 2.45489Q49.2976 2.42865 49.3591 2.4066Q49.4207 2.38455 49.4836 2.36678Q49.5466 2.34901 49.6106 2.33561Q49.6746 2.32221 49.7393 2.31324Q49.8041 2.30427 49.8694 2.29977Q49.9346 2.29528 50 2.29528Q50.0654 2.29528 50.1306 2.29977Q50.1959 2.30427 50.2607 2.31324Q50.3254 2.32221 50.3894 2.33561Q50.4535 2.34901 50.5164 2.36678Q50.5793 2.38455 50.6409 2.4066Q50.7025 2.42865 50.7624 2.45489Q50.8223 2.48112 50.8802 2.51141Q50.9382 2.5417 50.9939 2.5759Q51.0497 2.6101 51.1029 2.64806Q51.1562 2.68601 51.2067 2.72753Q51.2572 2.76906 51.3048 2.81395Q51.3523 2.85885 51.3966 2.90691Q51.441 2.95497 51.4819 3.00597Q51.5229 3.05696 51.5602 3.11065Q51.5975 3.16434 51.6311 3.22047Q51.6647 3.2766 51.6943 3.3349Z" fill="#90F5EE" fill-rule="evenodd" filter="url(#filter_1)" />
</svg>